<svg xmlns="http://www.w3.org/2000/svg" viewBox="0 0 128 128" role="img" aria-label="Red wax seal with black hand print">
  <defs>
    <radialGradient id="wax" cx="37%" cy="26%" r="72%">
      <stop offset="0" stop-color="#f06a45"/>
      <stop offset=".22" stop-color="#d73825"/>
      <stop offset=".58" stop-color="#8f160f"/>
      <stop offset="1" stop-color="#310402"/>
    </radialGradient>
    <radialGradient id="shine" cx="32%" cy="23%" r="36%">
      <stop offset="0" stop-color="#ffd0a0" stop-opacity=".82"/>
      <stop offset=".52" stop-color="#ff9b62" stop-opacity=".2"/>
      <stop offset="1" stop-color="#ff9b62" stop-opacity="0"/>
    </radialGradient>
    <filter id="pressed" x="-20%" y="-20%" width="140%" height="140%">
      <feDropShadow dx="0" dy="3" stdDeviation="2.2" flood-color="#120100" flood-opacity=".55"/>
    </filter>
  </defs>
  <path fill="url(#wax)" d="M64 4.5c9 1.8 14.4 2.3 23.3 1 7.8-1.1 16.9 6.2 18.8 14.9 1.3 6.3 5 11.3 10.4 15.4 6.5 4.9 8.7 15.9 4.4 23.3-3.1 5.4-3.1 11.4-.1 18.1 3.4 7.5-2.3 17.2-11.2 20.4-6.7 2.4-10.7 6-13.4 12.7-3.2 8-14.6 11.8-22.6 7.4-6-3.2-12.2-3-18.8.3-7.8 3.9-18.1-.4-21.2-8.6-2.6-6.8-6.8-10.8-13.4-13.4C11.8 92.8 6.9 83.2 10.3 75c2.8-6.7 2.8-12.8-.1-18.2-4.1-7.8-1.2-18 6-22.7 5.9-3.9 9.4-9.2 10.6-15.6 1.6-8.7 11.2-15.1 19.1-13.3 7.4 1.7 12.1.9 18.1-.7Z"/>
  <path fill="url(#shine)" d="M29.6 21.8c15.8-14 43.9-13.3 63.2-.5 8.2 5.5-10.5 8.2-27.1 9.1-16.5.8-42.4 4.1-36.1-8.6Z" opacity=".72"/>
  <path fill="none" stroke="#3d0301" stroke-width="3" stroke-opacity=".56" d="M64.1 15.7c29.6 0 50.6 20 50.6 48.6 0 28.1-20.9 49-50.6 49-29.7 0-50.7-20.9-50.7-49 0-28.6 21.1-48.6 50.7-48.6Z"/>
  <g filter="url(#pressed)" opacity=".98">
    <path fill="#050201" d="M36 73c3-10 11-17 24-18 16-2 27 5 31 18 3 10 0 22-8 30-8 8-20 11-33 8-11-3-18-10-19-21-1-6 1-12 5-17Z"/>
    <path fill="#8f160f" d="M56 68c7-2 14 2 16 8-7 2-12 8-16 16-6-7-6-17 0-24Z"/>
    <path fill="#050201" d="M25 70c-6-7-12-12-19-14 3-7 11-8 19-2 7 5 10 12 9 20-3 1-6 0-9-4Z"/>
    <path fill="#050201" d="M38 54c-4-16-8-31-12-45 8-4 14-1 17 9 4 13 6 25 7 36-4-1-8-1-12 0Z"/>
    <path fill="#050201" d="M57 49c-1-15-1-31 0-47 9-3 14 1 14 11-1 13-2 26-5 38-3-1-6-2-9-2Z"/>
    <path fill="#050201" d="M78 55c2-15 6-30 12-45 8-1 12 4 10 13-4 13-9 25-15 36-2-2-5-3-7-4Z"/>
    <path fill="#050201" d="M95 68c6-13 13-25 22-35 8 1 10 7 5 15-7 10-15 19-24 26-1-2-2-4-3-6Z"/>
    <path fill="#050201" d="M44 64c2-4 7-6 14-7 0 11-3 19-10 25-6-4-7-10-4-18Z"/>
    <path fill="#050201" d="M75 60c8 3 13 9 15 17-8 0-15-3-21-10 1-4 3-6 6-7Z"/>
    <path fill="#050201" d="M38 93c8 8 18 12 29 12 8 0 14-2 20-7-5 10-15 16-30 15-12 0-20-7-19-20Z"/>
  </g>
  <path fill="none" stroke="#ff9c64" stroke-width="1.2" stroke-opacity=".2" d="M24.5 40.4c8-16.8 24-23.5 42.7-22.4"/>
</svg>
