<svg xmlns="http://www.w3.org/2000/svg" viewBox="0 0 128 128" role="img" aria-label="Black hand print">
  <path fill="#050201" d="M36 73c3-10 11-17 24-18 16-2 27 5 31 18 3 10 0 22-8 30-8 8-20 11-33 8-11-3-18-10-19-21-1-6 1-12 5-17Z"/>
  <path fill="#fff" d="M56 68c7-2 14 2 16 8-7 2-12 8-16 16-6-7-6-17 0-24Z"/>
  <path fill="#050201" d="M25 70c-6-7-12-12-19-14 3-7 11-8 19-2 7 5 10 12 9 20-3 1-6 0-9-4Z"/>
  <path fill="#050201" d="M38 54c-4-16-8-31-12-45 8-4 14-1 17 9 4 13 6 25 7 36-4-1-8-1-12 0Z"/>
  <path fill="#050201" d="M57 49c-1-15-1-31 0-47 9-3 14 1 14 11-1 13-2 26-5 38-3-1-6-2-9-2Z"/>
  <path fill="#050201" d="M78 55c2-15 6-30 12-45 8-1 12 4 10 13-4 13-9 25-15 36-2-2-5-3-7-4Z"/>
  <path fill="#050201" d="M95 68c6-13 13-25 22-35 8 1 10 7 5 15-7 10-15 19-24 26-1-2-2-4-3-6Z"/>
  <path fill="#050201" d="M44 64c2-4 7-6 14-7 0 11-3 19-10 25-6-4-7-10-4-18Z"/>
  <path fill="#050201" d="M75 60c8 3 13 9 15 17-8 0-15-3-21-10 1-4 3-6 6-7Z"/>
  <path fill="#050201" d="M38 93c8 8 18 12 29 12 8 0 14-2 20-7-5 10-15 16-30 15-12 0-20-7-19-20Z"/>
</svg>
